<?xml version="1.0" encoding="UTF-8" standalone="no"?><!DOCTYPE svg PUBLIC "-//W3C//DTD SVG 1.1//EN" "http://www.w3.org/Graphics/SVG/1.1/DTD/svg11.dtd"><svg width="100%" height="100%" viewBox="0 0 37 32" version="1.1" xmlns="http://www.w3.org/2000/svg" xmlns:xlink="http://www.w3.org/1999/xlink" xml:space="preserve" xmlns:serif="http://www.serif.com/" style="fill-rule:evenodd;clip-rule:evenodd;stroke-linejoin:round;stroke-miterlimit:1.41421;"><path id="backup-restore" d="M21.143,0.039c-8.757,0 -15.857,7.1 -15.857,15.857l-5.286,0l7.048,7.048l7.047,-7.048l-5.285,0c0,-6.819 5.514,-12.333 12.333,-12.333c6.818,0 12.333,5.514 12.333,12.333c0,6.819 -5.515,12.333 -12.333,12.333c-2.661,0 -5.127,-0.863 -7.153,-2.29l-2.502,2.537c2.678,2.044 6.025,3.277 9.655,3.277c8.757,0 15.857,-7.1 15.857,-15.857c0,-8.757 -7.1,-15.857 -15.857,-15.857Zm3.524,15.857c0,-1.938 -1.586,-3.524 -3.524,-3.524c-1.938,0 -3.524,1.586 -3.524,3.524c0,1.938 1.586,3.524 3.524,3.524c1.938,0 3.524,-1.586 3.524,-3.524Z" style="fill:#fff;fill-rule:nonzero;"/></svg>