<?xml version="1.0" encoding="UTF-8" standalone="no"?><!DOCTYPE svg PUBLIC "-//W3C//DTD SVG 1.1//EN" "http://www.w3.org/Graphics/SVG/1.1/DTD/svg11.dtd"><svg width="100%" height="100%" viewBox="0 0 76 64" version="1.1" xmlns="http://www.w3.org/2000/svg" xmlns:xlink="http://www.w3.org/1999/xlink" xml:space="preserve" xmlns:serif="http://www.serif.com/" style="fill-rule:evenodd;clip-rule:evenodd;stroke-linejoin:round;stroke-miterlimit:1.41421;"><path id="check-square-o" d="M63.962,36.211l0,14.32c0,7.159 -5.81,12.969 -12.969,12.969l-37.465,0c-7.158,0 -12.968,-5.81 -12.968,-12.969l0,-37.464c0,-7.159 5.81,-12.969 12.968,-12.969l37.465,0c1.801,0 3.602,0.36 5.268,1.127c0.407,0.181 0.721,0.585 0.81,1.034c0.089,0.496 -0.046,0.946 -0.406,1.306l-2.208,2.207c-0.271,0.271 -0.674,0.45 -1.034,0.45c-0.136,0 -0.271,-0.046 -0.407,-0.089c-0.674,-0.182 -1.351,-0.271 -2.026,-0.271l-37.465,0c-3.962,0 -7.204,3.242 -7.204,7.205l0,37.464c0,3.963 3.242,7.205 7.204,7.205l37.465,0c3.963,0 7.205,-3.242 7.205,-7.205l0,-11.438c0,-0.36 0.135,-0.72 0.406,-0.991l2.882,-2.882c0.314,-0.314 0.675,-0.45 1.035,-0.45c0.181,0 0.36,0.046 0.539,0.136c0.539,0.224 0.902,0.72 0.902,1.305l0.003,0Zm10.401,-22.018l-36.656,36.655c-1.44,1.441 -3.691,1.441 -5.132,0l-19.364,-19.363c-1.441,-1.441 -1.441,-3.692 0,-5.133l4.954,-4.954c1.441,-1.441 3.692,-1.441 5.133,0l11.842,11.842l29.133,-29.133c1.441,-1.441 3.692,-1.441 5.133,0l4.954,4.954c1.441,1.441 1.441,3.691 0,5.132l0.003,0Z" style="fill:#009cea;fill-rule:nonzero;"/></svg>