<?xml version="1.0" encoding="UTF-8" standalone="no"?><!DOCTYPE svg PUBLIC "-//W3C//DTD SVG 1.1//EN" "http://www.w3.org/Graphics/SVG/1.1/DTD/svg11.dtd"><svg width="100%" height="100%" viewBox="0 0 278 265" version="1.1" xmlns="http://www.w3.org/2000/svg" xmlns:xlink="http://www.w3.org/1999/xlink" xml:space="preserve" xmlns:serif="http://www.serif.com/" style="fill-rule:evenodd;clip-rule:evenodd;stroke-linejoin:round;stroke-miterlimit:1.41421;"><g><path id="ion-ios-heart-outline" d="M175.504,28.549c28.474,0 49.931,17.746 49.931,47.865c0,12.794 -5.367,29.299 -16.921,43.329c-11.554,14.029 -18.572,21.456 -41.263,36.311c-22.691,14.854 -34.251,17.746 -34.251,17.746c0,0 -11.554,-2.892 -34.251,-17.746c-22.698,-14.855 -29.709,-22.282 -41.263,-36.311c-11.554,-14.03 -16.921,-30.535 -16.921,-43.329c0,-30.125 21.457,-47.865 49.931,-47.865c16.096,0 33.836,7.427 42.504,21.872c8.668,-14.445 26.408,-21.872 42.504,-21.872Zm28.058,87.067c4.952,-5.776 9.078,-12.794 11.554,-20.222c2.476,-6.602 3.717,-12.794 3.717,-18.98c0,-12.379 -4.126,-23.108 -11.97,-30.535c-3.716,-3.301 -8.252,-6.193 -13.62,-7.843c-5.367,-2.066 -11.553,-2.892 -17.746,-2.892c-15.68,0 -30.125,7.428 -36.727,18.572l-5.777,9.494l-5.776,-9.494c-6.602,-11.144 -21.048,-18.572 -36.727,-18.572c-6.193,0 -12.379,0.826 -17.747,2.892c-5.367,1.65 -9.903,4.542 -13.62,7.843c-7.843,7.427 -11.969,18.156 -11.969,30.535c0,6.192 1.241,12.378 3.717,18.98c2.476,7.428 6.602,14.446 11.553,20.222c11.145,13.204 17.331,20.222 40.028,35.077c16.505,11.144 26.824,14.855 30.535,16.096c3.717,-1.241 14.029,-4.952 30.534,-16.096c22.698,-14.855 28.884,-21.873 40.028,-35.077l0.013,0Z" style="fill:#fff;fill-rule:nonzero;"/><path d="M137.208,108.196c0.786,-0.026 1.58,0.432 1.977,1.219c0.524,1.04 0.158,2.264 -0.817,2.731c-0.976,0.466 -2.194,0.001 -2.718,-1.04c-0.326,-0.646 -0.308,-1.363 -0.014,-1.925l-16.179,-22.303l-57.04,-81.974c-0.377,-0.56 -0.034,-2.759 0.484,-3.108l2.085,-1.404c0.517,-0.349 2.684,0.162 3.061,0.722l54.494,83.59l14.667,23.492Z" style="fill:#fff;"/><path d="M125.079,111.263c0.766,-0.175 1.633,0.123 2.173,0.82c0.713,0.921 0.588,2.192 -0.281,2.836c-0.868,0.645 -2.152,0.42 -2.866,-0.501c-0.443,-0.572 -0.562,-1.279 -0.381,-1.887l-20.139,-18.804l-71.641,-69.577c-0.477,-0.477 -0.561,-2.702 -0.119,-3.143l1.779,-1.776c0.441,-0.442 2.665,-0.354 3.142,0.124l69.45,71.649l18.883,20.259Z" style="fill:#fff;"/><text x="-1.899px" y="264.283px" style="font-family:'Barlow-Medium', 'Barlow';font-weight:500;font-size:63.07px;fill:#fff;">T<tspan x="34.114px 70.632px 125.314px 166.877px 192.862px 229.38px " y="264.283px 264.283px 264.283px 264.283px 264.283px 264.283px ">umDrum</tspan></text></g></svg>