<?xml version="1.0" encoding="UTF-8" standalone="no"?><!DOCTYPE svg PUBLIC "-//W3C//DTD SVG 1.1//EN" "http://www.w3.org/Graphics/SVG/1.1/DTD/svg11.dtd"><svg width="100%" height="100%" viewBox="0 0 62 62" version="1.1" xmlns="http://www.w3.org/2000/svg" xmlns:xlink="http://www.w3.org/1999/xlink" xml:space="preserve" xmlns:serif="http://www.serif.com/" style="fill-rule:evenodd;clip-rule:evenodd;stroke-linejoin:round;stroke-miterlimit:1.41421;"><path id="tune-vertical" d="M6.869,0.473l0,30.543l-6.793,0l0,6.771l6.793,0l0,23.751l6.792,0l0,-23.751l6.771,0l0,-6.771l-6.771,0l0,-30.543m13.563,0l0,16.959l-6.792,0l0,6.792l6.792,0l0,37.314l6.771,0l0,-37.314l6.792,0l0,-6.792l-6.792,0l0,-16.959m13.584,0l0,37.314l-6.792,0l0,6.792l6.792,0l0,16.959l6.771,0l0,-16.959l6.792,0l0,-6.792l-6.792,0l0,-37.314" style="fill:#fff;fill-rule:nonzero;"/></svg>