<?xml version="1.0" encoding="UTF-8" standalone="no"?><!DOCTYPE svg PUBLIC "-//W3C//DTD SVG 1.1//EN" "http://www.w3.org/Graphics/SVG/1.1/DTD/svg11.dtd"><svg width="100%" height="100%" viewBox="0 0 72 62" version="1.1" xmlns="http://www.w3.org/2000/svg" xmlns:xlink="http://www.w3.org/1999/xlink" xml:space="preserve" xmlns:serif="http://www.serif.com/" style="fill-rule:evenodd;clip-rule:evenodd;stroke-linejoin:round;stroke-miterlimit:1.41421;"><path id="speaker-wireless" d="M61.867,54.968l-4.763,-4.763c4.905,-4.905 7.93,-11.693 7.93,-19.205c0,-7.513 -3.025,-14.3 -7.93,-19.205l4.763,-4.763c6.143,6.143 9.95,14.622 9.95,23.968c0,9.346 -3.807,17.825 -9.95,23.968Zm-9.592,-9.592l-4.77,-4.77c2.45,-2.45 3.961,-5.839 3.961,-9.606c0,-3.767 -1.511,-7.156 -3.961,-9.606l4.77,-4.77c3.687,3.688 5.975,8.776 5.975,14.376c0,5.6 -2.288,10.688 -5.975,14.376Zm-44.902,-44.903l27.134,0c3.747,0 6.784,3.038 6.784,6.784l0,47.486c0,3.746 -3.037,6.784 -6.784,6.784l-27.134,0c-3.747,0 -6.784,-3.038 -6.784,-6.784l0,-47.486c0,-3.746 3.037,-6.784 6.784,-6.784Zm13.567,6.784c-3.747,0 -6.784,3.037 -6.784,6.784c0,3.746 3.037,6.784 6.784,6.784c3.746,0 6.784,-3.038 6.784,-6.784c0,-3.747 -3.038,-6.784 -6.784,-6.784Zm0,20.351c-7.493,0 -13.567,6.075 -13.567,13.567c0,7.493 6.074,13.568 13.567,13.568c7.493,0 13.567,-6.075 13.567,-13.568c0,-7.492 -6.074,-13.567 -13.567,-13.567Zm0,6.784c3.746,0 6.784,3.037 6.784,6.783c0,3.747 -3.038,6.784 -6.784,6.784c-3.747,0 -6.784,-3.037 -6.784,-6.784c0,-3.746 3.037,-6.783 6.784,-6.783Z" style="fill:#fff;fill-rule:nonzero;"/></svg>