<?xml version="1.0" encoding="UTF-8" standalone="no"?><!DOCTYPE svg PUBLIC "-//W3C//DTD SVG 1.1//EN" "http://www.w3.org/Graphics/SVG/1.1/DTD/svg11.dtd"><svg width="100%" height="100%" viewBox="0 0 71 70" version="1.1" xmlns="http://www.w3.org/2000/svg" xmlns:xlink="http://www.w3.org/1999/xlink" xml:space="preserve" xmlns:serif="http://www.serif.com/" style="fill-rule:evenodd;clip-rule:evenodd;stroke-linejoin:round;stroke-miterlimit:1.41421;"><path d="M34.129,1.324c0.006,-0.696 0.664,-1.291 1.488,-1.289c0.948,0.01 2.245,0.086 2.245,0.086c0.832,0.06 1.298,0.744 1.233,1.381c2.61,0.285 5.13,0.868 7.528,1.714c0.137,-0.47 0.542,-0.849 1.247,-0.837c0.678,0.109 0.687,0.216 0.964,0.33c2.799,1.173 2.972,2.063 2.529,2.604c1.174,0.631 2.306,1.33 3.391,2.091l-14.72,22.839c-0.772,-0.001 -1.621,0.471 -2.184,1.296c-0.807,1.184 -0.723,2.65 0.189,3.272c0.912,0.622 2.308,0.166 3.116,-1.018c0.563,-0.825 0.692,-1.788 0.41,-2.506l15.375,-21.321c-0.295,-1.121 1.237,-0.904 1.692,-0.853c1.778,0.46 2.488,2.178 2.488,2.178c0.459,0.574 0.299,1.312 -0.183,1.693c1.653,1.908 3.096,4.003 4.293,6.25c0.235,-0.04 0.518,-0.012 0.797,0.004c1.491,0.298 2.029,3.116 2.029,3.116c0.216,0.695 -0.194,1.348 -0.78,1.536c0.842,2.396 1.422,4.915 1.705,7.523c0.115,-0.012 0.241,-0.01 0.379,0.009c1.662,0.486 1.079,2.094 1.085,3.667c0,0 -0.142,1.222 -1.091,1.355c-0.071,0.01 -0.138,0.013 -0.202,0.01c-0.103,2.585 -0.497,5.095 -1.15,7.5c2.104,0.584 0.709,2.197 0.009,3.985c0,0 -0.942,0.899 -1.69,0.762c-1.041,2.359 -2.343,4.577 -3.871,6.617c0.578,0.678 -0.106,2.249 -1.401,3.646c0,0 -0.564,0.578 -1.224,0.457c-0.297,-0.054 -0.5,-0.184 -0.617,-0.375c-1.828,1.818 -3.863,3.428 -6.066,4.792c0.209,0.733 -0.582,1.879 -2.367,2.754c-0.753,0.368 -1.56,0.036 -1.852,-0.537c-2.374,1.04 -4.891,1.815 -7.512,2.287c0.074,0.646 -0.38,1.366 -1.559,1.52c-2.857,0.354 -3.643,-0.294 -3.566,-0.996c-0.297,0.008 -0.596,0.012 -0.895,0.012c-2.268,0 -4.484,-0.224 -6.627,-0.651c-0.169,0.627 -0.857,1.136 -2.129,0.813c-3.038,-0.792 -3.14,-1.602 -2.745,-2.173c-2.374,-0.86 -4.624,-1.979 -6.716,-3.322c-0.38,0.532 -1.24,0.733 -2.414,-0.119c-2.513,-1.843 -2.405,-2.686 -1.78,-3.058c-1.836,-1.629 -3.493,-3.455 -4.939,-5.444c-1.416,0.721 -4.35,-3.632 -2.68,-4.341c-1.143,-2.209 -2.05,-4.56 -2.686,-7.02c-0.973,0.23 -1.64,-1.128 -1.967,-3.357c-0.106,-0.721 0.278,-1.493 1.074,-1.611c-0.119,-1.152 -0.18,-2.322 -0.18,-3.506c0,-1.381 0.083,-2.744 0.245,-4.082c-0.354,0.043 -0.71,-0.132 -0.982,-0.751c-0.688,-1.561 0.132,-4.28 1.76,-4.255c0.072,0.011 0.14,0.024 0.205,0.038c0.688,-2.476 1.65,-4.838 2.853,-7.051c-0.725,-0.562 -0.179,-2.301 0.882,-3.842c0,0 0.593,-0.695 1.332,-0.613c0.209,0.054 0.372,0.138 0.493,0.25c0.839,-1.113 1.745,-2.173 2.712,-3.173l15.746,27.183c-0.352,0.686 -0.319,1.657 0.159,2.534c0.685,1.258 2.029,1.851 2.998,1.323c0.97,-0.528 1.2,-1.979 0.514,-3.237c-0.478,-0.877 -1.276,-1.431 -2.043,-1.507l-14.585,-28.512c-0.46,-0.152 -0.768,-0.526 -0.477,-1.359c0.464,-1.325 2.175,-2.385 3.402,-2.322c0.464,0.091 0.739,0.312 0.819,0.63c2.168,-1.342 4.499,-2.447 6.956,-3.276c-0.357,-1.164 1.628,-1.856 3.312,-2.229c0,0 0.221,-0.043 0.441,-0.042c0.606,0.089 1.001,0.53 1.058,1.035c1.542,-0.276 3.12,-0.448 4.727,-0.507Z" style="fill:#fff;"/></svg>