<?xml version="1.0" encoding="UTF-8" standalone="no"?><!DOCTYPE svg PUBLIC "-//W3C//DTD SVG 1.1//EN" "http://www.w3.org/Graphics/SVG/1.1/DTD/svg11.dtd"><svg width="100%" height="100%" viewBox="0 0 69 68" version="1.1" xmlns="http://www.w3.org/2000/svg" xmlns:xlink="http://www.w3.org/1999/xlink" xml:space="preserve" xmlns:serif="http://www.serif.com/" style="fill-rule:evenodd;clip-rule:evenodd;stroke-linejoin:round;stroke-miterlimit:1.41421;"><path id="music-circle" d="M48.364,23.824l0,-6.783l-13.567,0l0,18.689c-1.425,-1.086 -3.155,-1.73 -5.088,-1.73c-4.681,0 -8.48,3.799 -8.48,8.48c0,4.68 3.799,8.479 8.48,8.479c4.681,0 8.48,-3.799 8.48,-8.479l0,-18.656l10.175,0Zm-13.567,-23.742c18.732,0 33.918,15.185 33.918,33.918c0,18.733 -15.186,33.918 -33.918,33.918c-18.733,0 -33.919,-15.185 -33.919,-33.918c0,-18.733 15.186,-33.918 33.919,-33.918Z" style="fill:#fff;fill-rule:nonzero;"/></svg>