<?xml version="1.0" encoding="UTF-8" standalone="no"?><!DOCTYPE svg PUBLIC "-//W3C//DTD SVG 1.1//EN" "http://www.w3.org/Graphics/SVG/1.1/DTD/svg11.dtd"><svg width="100%" height="100%" viewBox="0 0 34 35" version="1.1" xmlns="http://www.w3.org/2000/svg" xmlns:xlink="http://www.w3.org/1999/xlink" xml:space="preserve" xmlns:serif="http://www.serif.com/" style="fill-rule:evenodd;clip-rule:evenodd;stroke-linejoin:round;stroke-miterlimit:1.41421;"><path id="play-circle-outline" d="M17,31.496c-7.499,0 -13.6,-6.101 -13.6,-13.6c0,-7.499 6.101,-13.6 13.6,-13.6c7.499,0 13.6,6.101 13.6,13.6c0,7.499 -6.101,13.6 -13.6,13.6Zm0,-30.6c-9.389,0 -17,7.611 -17,17c0,9.389 7.611,17 17,17c9.389,0 17,-7.611 17,-17c0,-9.389 -7.611,-17 -17,-17Zm-3.4,24.65l10.2,-7.65l-10.2,-7.65l0,15.3Z" style="fill:#fff;fill-rule:nonzero;"/></svg>