<?xml version="1.0" encoding="UTF-8" standalone="no"?><!DOCTYPE svg PUBLIC "-//W3C//DTD SVG 1.1//EN" "http://www.w3.org/Graphics/SVG/1.1/DTD/svg11.dtd"><svg width="100%" height="100%" viewBox="0 0 20 23" version="1.1" xmlns="http://www.w3.org/2000/svg" xmlns:xlink="http://www.w3.org/1999/xlink" xml:space="preserve" xmlns:serif="http://www.serif.com/" style="fill-rule:evenodd;clip-rule:evenodd;stroke-linejoin:round;stroke-miterlimit:1.41421;"><path id="arrow-down2" d="M19.358,14.578l-7.857,7.858c-0.613,0.613 -1.608,0.613 -2.222,0l-7.857,-7.858c-0.613,-0.613 -0.613,-1.608 0,-2.222c0.614,-0.613 1.609,-0.613 2.222,0l5.175,5.175l0,-15.064c0,-0.868 0.703,-1.571 1.571,-1.571c0.869,0 1.572,0.703 1.572,1.571l0,15.064l5.174,-5.175c0.307,-0.306 0.709,-0.46 1.111,-0.46c0.403,0 0.805,0.153 1.111,0.46c0.614,0.614 0.614,1.609 0,2.222l0,0Z" style="fill:#009cea;fill-rule:nonzero;"/></svg>