<?xml version="1.0" encoding="UTF-8" standalone="no"?><!DOCTYPE svg PUBLIC "-//W3C//DTD SVG 1.1//EN" "http://www.w3.org/Graphics/SVG/1.1/DTD/svg11.dtd"><svg width="100%" height="100%" viewBox="0 0 28 20" version="1.1" xmlns="http://www.w3.org/2000/svg" xmlns:xlink="http://www.w3.org/1999/xlink" xml:space="preserve" xmlns:serif="http://www.serif.com/" style="fill-rule:evenodd;clip-rule:evenodd;stroke-linejoin:round;stroke-miterlimit:1.41421;"><path id="volume-up" d="M19.327,6.623c-0.498,-0.498 -1.309,-0.501 -1.809,0.002c-0.499,0.5 -0.499,1.309 0.002,1.809c0.442,0.441 0.685,1.027 0.685,1.652c0,0.625 -0.243,1.212 -0.686,1.655c-0.5,0.499 -0.5,1.309 0,1.809c0.25,0.249 0.577,0.375 0.905,0.375c0.327,0 0.654,-0.126 0.904,-0.375c0.926,-0.925 1.435,-2.156 1.435,-3.464c0,-1.309 -0.509,-2.538 -1.436,-3.463l0,0Zm2.558,-2.559c-0.5,-0.497 -1.309,-0.499 -1.809,0.003c-0.499,0.5 -0.499,1.31 0.003,1.809c1.124,1.121 1.743,2.614 1.745,4.204c0.001,1.594 -0.619,3.092 -1.746,4.219c-0.501,0.501 -0.501,1.309 0,1.809c0.249,0.25 0.577,0.375 0.904,0.375c0.328,0 0.655,-0.125 0.904,-0.375c1.611,-1.61 2.498,-3.752 2.496,-6.029c-0.001,-2.273 -0.888,-4.409 -2.497,-6.015l0,0Zm2.559,-2.558c-0.501,-0.498 -1.309,-0.499 -1.809,0.002c-0.499,0.5 -0.499,1.31 0.002,1.809c1.807,1.803 2.803,4.202 2.804,6.76c0.003,2.561 -0.993,4.97 -2.805,6.781c-0.5,0.5 -0.5,1.309 0,1.809c0.25,0.249 0.577,0.375 0.905,0.375c0.327,0 0.655,-0.126 0.904,-0.375c2.295,-2.295 3.558,-5.347 3.555,-8.593c-0.001,-3.24 -1.265,-6.284 -3.556,-8.568l0,0Zm-10.961,-0.599c-0.574,0 -1.158,0.194 -1.735,0.579l-3.419,2.28c-0.962,0.642 -2.821,1.204 -3.977,1.204c-2.116,0 -3.838,1.722 -3.838,3.838l0,2.558c0,2.116 1.722,3.838 3.838,3.838c1.156,0 3.015,0.561 3.977,1.204l3.418,2.278c0.577,0.385 1.16,0.58 1.735,0.58c1.149,0.001 2.383,-0.87 2.383,-2.783l0,-12.792c0,-1.913 -1.234,-2.784 -2.382,-2.784l0,0Zm-9.131,11.738c-0.706,0 -1.279,-0.573 -1.279,-1.279l0,-2.558c0,-0.707 0.573,-1.28 1.279,-1.28c1.549,0 3.719,-0.633 5.117,-1.466l0,8.051c-1.398,-0.834 -3.568,-1.468 -5.117,-1.468l0,0Zm8.955,3.838l-0.008,0.154l-0.133,-0.08l-2.418,-1.612l0,-9.717l2.419,-1.613l0.133,-0.079l0.007,0.155l0,12.792Z" style="fill:#009cea;fill-rule:nonzero;"/></svg>