<?xml version="1.0" encoding="UTF-8" standalone="no"?><!DOCTYPE svg PUBLIC "-//W3C//DTD SVG 1.1//EN" "http://www.w3.org/Graphics/SVG/1.1/DTD/svg11.dtd"><svg width="100%" height="100%" viewBox="0 0 25 26" version="1.1" xmlns="http://www.w3.org/2000/svg" xmlns:xlink="http://www.w3.org/1999/xlink" xml:space="preserve" xmlns:serif="http://www.serif.com/" style="fill-rule:evenodd;clip-rule:evenodd;stroke-linejoin:round;stroke-miterlimit:1.41421;"><path id="zoom-in-outline" d="M14.112,10.106l-2.968,0l0,-2.968c0,-0.408 -0.334,-0.742 -0.742,-0.742c-0.409,0 -0.743,0.334 -0.743,0.742l0,2.968l-2.968,0c-0.408,0 -0.742,0.334 -0.742,0.743c0,0.408 0.334,0.742 0.742,0.742l2.968,0l0,2.968c0,0.409 0.334,0.743 0.743,0.743c0.408,0 0.742,-0.334 0.742,-0.743l0,-2.968l2.968,0c0.409,0 0.743,-0.334 0.743,-0.742c0,-0.409 -0.334,-0.743 -0.743,-0.743Zm9.472,7.357l-3.331,-3.389c0.337,-1.02 0.539,-2.096 0.539,-3.225c0,-5.728 -4.662,-10.391 -10.39,-10.391c-5.728,0 -10.391,4.663 -10.391,10.391c0,5.728 4.663,10.39 10.391,10.39c1.131,0 2.208,-0.203 3.225,-0.54l3.558,3.541c0.892,0.751 2.001,1.162 3.123,1.162c2.564,0 4.648,-2.084 4.648,-4.647c0,-1.247 -0.487,-2.416 -1.372,-3.292Zm-5.79,-1.648l3.699,3.757c0.304,0.301 0.492,0.721 0.492,1.183c0,0.928 -0.752,1.679 -1.678,1.679c-0.463,0 -0.882,-0.189 -1.212,-0.465l-3.728,-3.727c0.959,-0.647 1.782,-1.471 2.427,-2.427l0,0Zm-14.814,-4.966c0,-4.093 3.329,-7.422 7.422,-7.422c4.092,0 7.421,3.329 7.421,7.422c0,4.092 -3.329,7.421 -7.421,7.421c-4.093,0 -7.422,-3.329 -7.422,-7.421Z" style="fill:#009cea;fill-rule:nonzero;"/></svg>